<svg xmlns="http://www.w3.org/2000/svg"  viewBox="0 0 48 48" width="48px" height="48px"><path d="M.003 38.998l-.001-27c0-2.76 2.241-5 5.001-5 1.124 0 2.163.372 2.999 1l16.001 12 16.001-12c.836-.628 1.875-1 2.999-1 2.76 0 5.001 2.24 5.001 5l-.001 27c0 2.208-1.793 4-4.001 4h-7.999V26.247l9.797-7.345c.139-.104.208-.267.2-.428l.004-.004v-6.471c0-2.039-1.648-3.969-3.503-3.969-.691 0-1.355.36-1.897.768l-4.601 3.451v12.748l-12 9.001-11-8.248V14.501c0-.275-.225-.5-.5-.5-.276 0-.5.225-.5.5v28.497H4.005C1.797 42.998.003 41.206.003 38.998zM10.003 41.998V23.499l-9-6.749v22.248c0 1.656 1.344 3 3.001 3H10.003zM24.003 22.998l10.025-8.268v-1l-10.025 7.519-10.003-7.5v1L24.003 22.998zM24.003 46.995c13.247 0 24 .225 24 .501s-10.753.501-24 .501-24-.225-24-.501S10.757 46.995 24.003 46.995z"/></svg>